# AST/ASF file generated using VICON BodyLanguage
# -----------------------------------------------
:version 1.10
:name VICON
:units
  mass 1.0
  length 0.45
  angle deg
:documentation
   .ast/.asf automatically generated from VICON data using
   VICON BodyBuilder and BodyLanguage model FoxedUp or BRILLIANT.MOD
:root
   order TX TY TZ RX RY RZ
   axis XYZ
   position 0 0 0  
   orientation 0 0 0 
:bonedata
  begin
     id 1 
     name lhipjoint
     direction 0.570549 -0.739093 0.358072 
     length 2.41801 
     axis 0 0 0  XYZ
  end
  begin
     id 2 
     name lfemur
     direction 0.34202 -0.939693 0  
     length 7.44434  
     axis 0 0 20  XYZ
    dof rx ry rz
    limits (-160.0 20.0)
           (-70.0 70.0)
           (-60.0 70.0)
  end
  begin
     id 3 
     name ltibia
     direction 0.34202 -0.939693 0   
     length 7.60047   
     axis 0 0 20   XYZ
    dof rx
    limits (-10.0 170.0)
  end
  begin
     id 4 
     name lfoot
     direction 0.0909041 -0.249757 0.964032   
     length 2.03437   
     axis -90 7.62852e-016 20   XYZ
    dof rx rz
    limits (-45.0 90.0)
           (-70.0 20.0)
  end
  begin
     id 5 
     name ltoes
     direction 1.53547e-011 -4.2174e-011 1   
     length 1.02054   
     axis -90 7.62852e-016 20   XYZ
    dof rx
    limits (-90.0 20.0)
  end
  begin
     id 6 
     name rhipjoint
     direction -0.558096 -0.746754 0.361784   
     length 2.3932  
     axis 0 0 0  XYZ 
  end
  begin
     id 7 
     name rfemur
     direction -0.34202 -0.939693 0   
     length 7.3886   
     axis 0 0 -20   XYZ
    dof rx ry rz
    limits (-160.0 20.0)
           (-70.0 70.0)
           (-70.0 60.0)
  end
  begin
     id 8 
     name rtibia
     direction -0.34202 -0.939693 0   
     length 7.4839   
     axis 0 0 -20   XYZ
    dof rx
    limits (-10.0 170.0)
 end
 begin
     id 9 
     name rfoot
     direction -0.114619 -0.314914 0.942174   
     length 2.25127  
     axis -90 -7.62852e-016 -20   XYZ
    dof rx rz
    limits (-45.0 90.0)
           (-20.0 70.0)
  end
  begin
     id 10 
     name rtoes
     direction -1.53518e-011 -4.21881e-011 1   
     length 1.11821   
     axis -90 -7.62852e-016 -20   XYZ
    dof rx
    limits (-90.0 20.0)
  end
  begin
     id 11 
     name lowerback
     direction -0.00902269 0.996426 -0.0839821   
     length 2.25052   
     axis 0 0 0   XYZ
    dof rx ry rz
    limits (-20.0 45.0)
           (-30.0 30.0)
           (-30.0 30.0)
  end
  begin
     id 12 
     name upperback
     direction 0.0370973 0.999169 -0.0168941   
     length 2.24876   
     axis 0 0 0   XYZ
    dof rx ry rz
    limits (-20.0 45.0)
           (-30.0 30.0)
           (-30.0 30.0)
  end
  begin
     id 13 
     name thorax
     direction 0.0402726 0.998931 0.0227027   
     length 2.26408   
     axis 0 0 0   XYZ
    dof rx ry rz
    limits (-20.0 45.0)
           (-30.0 30.0)
           (-30.0 30.0)
  end
  begin
     id 14 
     name lowerneck
     direction -0.0733697 0.98508 0.155675   
     length 1.58204   
     axis 0 0 0   XYZ
    dof rx ry rz
    limits (-20.0 45.0)
           (-30.0 30.0)
           (-30.0 30.0)
  end
  begin
     id 15 
     name upperneck
     direction 0.0426554 0.993501 -0.105526   
     length 1.61222   
     axis 0 0 0   XYZ
    dof rx ry rz
    limits (-20.0 45.0)
           (-30.0 30.0)
           (-30.0 30.0)
  end
  begin
     id 16
     name head
     direction 0.020792 0.998384 -0.0528868  
     length 1.61527  
     axis 0 0 0   XYZ
    dof rx ry rz
    limits (-20.0 45.0)
           (-30.0 30.0)
           (-30.0 30.0)
  end
  begin
     id 17 
     name lclavicle
     direction 0.967109 0.155462 -0.201325  
     length 3.59357  
     axis 0 0 0   XYZ
    dof ry rz
    limits (-20.0 10.0)
           (0.0 20.0)
  end
  begin
     id 18 
     name lhumerus
     direction 1 -4.48968e-011 2.38195e-027   
     length 5.38154   
     axis 180 -30 -90   XYZ
    dof rx ry rz
    limits (-60.0 90.0)
           (-90.0 90.0)
           (-90.0 90.0)
  end
  begin
     id 19
     name lradius
     direction 1 -4.48961e-011 4.85371e-027   
     length 3.33312   
     axis 180 -30 -90   XYZ
    dof rx
    limits (-10.0 170.0)
  end
  begin
     id 20
     name lwrist
     direction 1 -4.48961e-011 4.76515e-027   
     length 1.66656   
     axis -3.27502e-015 90 90   XYZ
    dof ry
    limits (-180.0 0.0)
 end
  begin
     id 21 
     name lhand
     direction 1 -4.48951e-011 9.53074e-027   
     length 0.710789   
     axis -6.08098e-015 90 90   XYZ
    dof rx rz
    limits (-90.0 90.0)
           (-45.0 45.0)
  end
  begin
     id 22 
     name lfingers
     direction 1 -4.48953e-011 1.90613e-026   
     length 0.573057   
     axis -1.21619e-014 90 90   XYZ
    dof rx
    limits (0.0 90.0)
  end
  begin
     id 23
     name lthumb
     direction 0.707107 -6.34973e-011 0.707107   
     length 0.822798   
     axis -90 45 -9.86923e-015   XYZ
    dof rx rz
    limits (-45.0 45.0)
           (-45.0 45.0)
  end
  begin
     id 24 
     name rclavicle
     direction -0.9585 0.265289 -0.104398   
     length 3.42039  
     axis 0 0 0   XYZ 
    dof ry rz
    limits (-10.0 20.0)
           (-20.0 0.0)
  end
  begin
     id 25 
     name rhumerus
     direction -1 -4.48977e-011 2.21478e-027  
     length 5.16954   
     axis 180 30 90   XYZ
    dof rx ry rz
    limits (-90.0 60.0)
           (-90.0 90.0)
           (-90.0 90.0)
  end
  begin
     id 26 
     name rradius
     direction -1 -4.48967e-011 5.63677e-027   
     length 3.38287   
     axis 180 30 90   XYZ
    dof rx
    limits (-10.0 170.0)
  end
  begin
     id 27 
     name rwrist
     direction -1 -4.48967e-011 4.76501e-027   
     length 1.69144   
     axis -3.27502e-015 -90 -90   XYZ
    dof ry
    limits (-180.0 0.0)
  end
  begin
     id 28
     name rhand
     direction -1 -4.48902e-011 9.53292e-027   
     length 0.817967   
     axis -6.08098e-015 -90 -90   XYZ
    dof rx rz
    limits (-90.0 90.0)
           (-45.0 45.0)
  end
  begin
     id 29
     name rfingers
     direction -1 -4.49012e-011 1.90561e-026   
     length 0.659466   
     axis -1.21619e-014 -90 -90   XYZ
    dof rx
    limits (0.0 90.0)
  end
  begin
     id 30
     name rthumb
     direction -0.707107 -6.34944e-011 0.707107   
     length 0.946865   
     axis -90 -45 9.86923e-015   XYZ
    dof rx rz
    limits (-45.0 45.0)
           (-45.0 45.0)
  end
:hierarchy
  begin
    root lhipjoint rhipjoint lowerback
    lhipjoint lfemur
    lfemur ltibia
    ltibia lfoot
    lfoot ltoes
    rhipjoint rfemur
    rfemur rtibia
    rtibia rfoot
    rfoot rtoes
    lowerback upperback
    upperback thorax
    thorax lowerneck lclavicle rclavicle
    lowerneck upperneck
    upperneck head
    lclavicle lhumerus
    lhumerus lradius
    lradius lwrist
    lwrist lhand lthumb
    lhand lfingers
    rclavicle rhumerus
    rhumerus rradius
    rradius rwrist
    rwrist rhand rthumb
    rhand rfingers
  end

#!OML:ASF F:\twosubjects\two\wednesday\Session 1\Justin1.ASF
:FULLY-SPECIFIED
:DEGREES
276
root 11.2233 16.1643 2.74344 -185.391 -72.4381 -530.396
lowerback 19.325 5.3573 -10.4176
upperback 2.3847 4.15355 -3.41761
thorax -8.72108 2.11125 1.04415
lowerneck -7.57246 -17.2572 -19.5471
upperneck -0.286708 -23.5754 26.4305
head 6.93578 -11.2777 8.57225
rclavicle -4.45278e-014 1.90833e-014
rhumerus 39.3843 -67.1578 -62.3812
rradius 26.6005
rwrist -52.4627
rhand -5.24968 -15.844
rfingers 7.12502
rthumb 20.5535 -44.7759
lclavicle -4.45278e-014 1.90833e-014
lhumerus -20.7159 29.4023 14.4981
lradius 22.4454
lwrist -12.4394
lhand -4.56888 27.1285
lfingers 7.12502
lthumb 21.2076 55.9884
rfemur -40.1685 -2.44887 8.43489
rtibia 75.633
rfoot -3.47306 -3.21634
rtoes 7.24982
lfemur -17.8634 2.67542 -3.5009
ltibia 53.3392
lfoot -34.4651 -7.61391
ltoes -35.7016
277
root 11.0279 16.1696 2.88908 -185.082 -71.2677 -530.495
lowerback 19.677 5.24975 -10.3738
upperback 2.40206 3.99873 -3.17347
thorax -8.89197 2.04575 1.30897
lowerneck -7.8765 -17.2264 -20.3742
upperneck -0.266814 -23.5109 27.087
head 7.19467 -11.2157 8.89094
rclavicle 3.02153e-014 -6.99722e-014
rhumerus 40.3712 -66.8298 -63.0626
rradius 26.6112
rwrist -52.5818
rhand -4.69227 -15.9699
rfingers 7.12502
rthumb 21.0891 -44.8431
lclavicle 3.02153e-014 -6.99722e-014
lhumerus -21.0326 29.4368 14.2282
lradius 22.5875
lwrist -11.0729
lhand -4.76058 27.94
lfingers 7.12502
lthumb 21.0234 56.8205
rfemur -41.7397 -3.89984 9.64803
rtibia 77.1267
rfoot -6.23826 -0.0954225
rtoes -0.992013
lfemur -17.0475 3.13305 -4.104
ltibia 53.3503
lfoot -35.0295 -7.99677
ltoes -35.0148
278
root 10.8196 16.1759 3.02422 -185.294 -70.2334 -530.094
lowerback 20.0142 5.14846 -10.1164
upperback 2.45732 3.89492 -3.00064
thorax -8.99716 1.99176 1.36852
lowerneck -7.69682 -17.0969 -20.4397
upperneck -0.842994 -23.3106 27.4928
head 7.01953 -11.1612 9.09869
rclavicle -3.97569e-015 2.70347e-014
rhumerus 39.31 -66.1733 -61.8421
rradius 26.7631
rwrist -53.6191
rhand -4.95429 -16.2632
rfingers 7.12502
rthumb 20.8373 -45.1643
lclavicle -3.97569e-015 2.70347e-014
lhumerus -20.8794 30.0253 13.9916
lradius 22.5414
lwrist -10.4104
lhand -5.33628 28.8211
lfingers 7.12502
lthumb 20.4703 57.762
rfemur -42.9991 -5.25257 11.149
rtibia 78.2324
rfoot -6.61102 0.745099
rtoes 0.875555
lfemur -16.1219 3.16402 -4.62304
ltibia 53.242
lfoot -35.2534 -7.80839
ltoes -33.5141
279
root 10.6014 16.1946 3.14599 -185.432 -69.1255 -529.582
lowerback 20.0326 5.06398 -9.92877
upperback 2.48883 3.84637 -2.82972
thorax -8.96588 1.96599 1.4676
lowerneck -7.70717 -16.9859 -20.1204
upperneck -0.996746 -23.1503 27.4326
head 6.88768 -11.0976 9.07352
rclavicle 1.90833e-014 -4.13472e-014
rhumerus 38.1678 -65.5605 -60.6755
rradius 26.8318
rwrist -54.0928
rhand -4.55842 -16.559
rfingers 7.12502
rthumb 21.2176 -45.4178
lclavicle 1.90833e-014 -4.13472e-014
lhumerus -20.6036 30.6683 13.7134
lradius 22.3228
lwrist -10.4608
lhand -5.83089 29.3211
lfingers 7.12502
lthumb 19.9949 58.3124
rfemur -44.4427 -6.90494 13.0521
rtibia 79.0437
rfoot -7.3132 1.17372
rtoes 2.34104
lfemur -15.3019 3.17868 -5.18785
ltibia 53.043
lfoot -35.474 -6.78544
ltoes -32.5406
280
root 10.3765 16.2168 3.26269 -184.9 -67.9829 -529.645
lowerback 19.8954 4.95525 -10.0749
upperback 2.45973 3.72567 -2.56845
thorax -8.93774 1.9243 1.87717
lowerneck -8.06966 -17.0245 -20.0592
upperneck -0.445681 -23.1835 26.9939
head 7.04242 -11.0649 8.88308
rclavicle 2.54444e-014 -1.19271e-013
rhumerus 39.7304 -65.4855 -62.2447
rradius 26.7921
rwrist -53.0639
rhand -2.40205 -17.987
rfingers 7.12502
rthumb 23.2877 -46.5986
lclavicle 2.54444e-014 -1.19271e-013
lhumerus -20.8495 31.0925 13.3603
lradius 22.183
lwrist -10.7168
lhand -5.66149 29.2083
lfingers 7.12502
lthumb 20.1577 58.1824
rfemur -46.0222 -9.18467 15.1396
rtibia 79.5831
rfoot -8.66886 1.33846
rtoes 0.94494
lfemur -14.5834 3.3963 -6.07129
ltibia 52.7549
lfoot -35.8633 -4.88166
ltoes -33.4703
281
root 10.1431 16.2466 3.37113 -184.167 -66.9337 -529.746
lowerback 19.701 4.78104 -9.98552
upperback 2.30381 3.55247 -2.5133
thorax -8.98393 1.85315 1.94243
lowerneck -8.2366 -17.1167 -19.7137
upperneck 0.0599682 -23.3294 26.4365
head 7.12167 -11.1073 8.6025
rclavicle 1.82882e-014 2.70347e-014
rhumerus 40.6394 -65.526 -63.4663
rradius 26.7864
rwrist -51.9832
rhand -0.192908 -19.3058
rfingers 7.12502
rthumb 25.4056 -47.633
lclavicle 1.82882e-014 2.70347e-014
lhumerus -20.87 30.6515 13.1374
lradius 22.36
lwrist -10.27
lhand -5.16113 29.2642
lfingers 7.12502
lthumb 20.6386 58.187
rfemur -47.5776 -11.4897 17.4505
rtibia 79.76
rfoot -10.2714 1.12489
rtoes -1.53995
lfemur -14.0045 3.60815 -7.02
ltibia 52.3474
lfoot -36.15 -2.92561
ltoes -34.5075
282
root 9.90497 16.2944 3.46175 -183.467 -65.909 -529.663
lowerback 19.3631 4.6064 -9.8256
upperback 2.05777 3.39744 -2.57873
thorax -9.04227 1.79 1.834
lowerneck -8.27962 -17.1709 -19.307
upperneck 0.659348 -23.5022 26.0414
head 7.2362 -11.1672 8.37132
rclavicle 6.75868e-014 -3.18055e-015
rhumerus 39.7034 -65.3058 -63.0784
rradius 26.6882
rwrist -51.3893
rhand 1.48759 -19.8453
rfingers 7.12502
rthumb 27.0144 -47.9334
lclavicle 6.75868e-014 -3.18055e-015
lhumerus -20.4834 29.7931 12.9654
lradius 22.5196
lwrist -9.9383
lhand -4.58165 29.1824
lfingers 7.12502
lthumb 21.1953 58.0437
rfemur -49.1891 -13.5648 20.1452
rtibia 79.5648
rfoot -11.7058 0.560695
rtoes -8.00817
lfemur -13.5058 3.76654 -7.83625
ltibia 51.7895
lfoot -36.2209 -1.53544
ltoes -34.908
283
root 9.6702 16.3427 3.54003 -182.186 -64.8353 -530.269
lowerback 19.0483 4.59967 -10.107
upperback 1.93263 3.35924 -2.64371
thorax -9.0182 1.78564 1.94088
lowerneck -8.29485 -17.2618 -19.3529
upperneck 1.04093 -23.7401 26.2215
head 7.44766 -11.2613 8.37562
rclavicle -2.06736e-014 3.49861e-014
rhumerus 40.5409 -65.8094 -64.4015
rradius 26.5218
rwrist -50.0356
rhand 2.76647 -20.6557
rfingers 7.12502
rthumb 28.2374 -48.548
lclavicle -2.06736e-014 3.49861e-014
lhumerus -19.6417 30.3548 13.0012
lradius 22.1691
lwrist -11.2887
lhand -4.36571 28.7587
lfingers 7.12502
lthumb 21.4027 57.5966
rfemur -50.7774 -15.6195 22.7758
rtibia 78.9899
rfoot -12.6487 0.022567
rtoes -14.4144
lfemur -12.9025 3.97532 -8.87893
ltibia 51.054
lfoot -35.9613 -0.71393
ltoes -34.9113
284
root 9.4358 16.3811 3.61513 -180.994 -63.7176 -530.873
lowerback 18.9111 4.6164 -10.315
upperback 1.90464 3.34137 -2.71895
thorax -8.98051 1.78064 1.98502
lowerneck -8.20093 -17.3937 -19.6246
upperneck 0.891209 -23.9811 26.7342
head 7.56299 -11.3863 8.52638
rclavicle 1.19271e-014 1.06549e-013
rhumerus 42.5276 -66.6101 -66.7409
rradius 26.3503
rwrist -48.4803
rhand 4.24225 -22.1454
rfingers 7.12502
rthumb 29.647 -49.7961
lclavicle 1.19271e-014 1.06549e-013
lhumerus -18.7372 30.657 13.3075
lradius 22.0211
lwrist -12.1839
lhand -4.52022 28.5862
lfingers 7.12502
lthumb 21.2543 57.4408
rfemur -52.2311 -17.4808 25.3332
rtibia 77.8049
rfoot -13.1664 -0.00641573
rtoes -14.372
lfemur -12.1915 4.04451 -9.93623
ltibia 50.1706
lfoot -35.3529 -0.372381
ltoes -33.8235
285
root 9.19298 16.4362 3.68419 -180.393 -62.5818 -530.98
lowerback 18.9223 4.54414 -10.2837
upperback 1.85464 3.23626 -2.79978
thorax -9.02411 1.72922 1.90623
lowerneck -7.97718 -17.4457 -19.7683
upperneck 0.625483 -24.118 27.2067
head 7.57552 -11.481 8.6832
rclavicle -4.29375e-014 6.04305e-014
rhumerus 40.1035 -65.9272 -64.6604
rradius 26.5916
rwrist -49.4415
rhand 5.49726 -23.4191
rfingers 7.12502
rthumb 30.8442 -50.8502
lclavicle -4.29375e-014 6.04305e-014
lhumerus -18.2946 29.2768 13.513
lradius 22.5373
lwrist -11.3755
lhand -4.82982 28.3135
lfingers 7.12502
lthumb 20.9569 57.2014
rfemur -53.4436 -19.2344 28.1017
rtibia 76.0009
rfoot -13.7506 0.563787
rtoes -13.6662
lfemur -11.2837 3.96475 -10.7798
ltibia 49.1751
lfoot -34.5252 0.180028
ltoes -33.4737
286
root 8.94563 16.5179 3.73289 -180.251 -61.3568 -530.715
lowerback 18.8849 4.52614 -10.2235
upperback 1.87414 3.21829 -2.86505
thorax -8.97289 1.71187 1.80996
lowerneck -7.62409 -17.4188 -19.7957
upperneck 0.261898 -24.2082 27.9035
head 7.55233 -11.5709 8.92126
rclavicle 7.15625e-014 6.52014e-014
rhumerus 35.3315 -64.4185 -60.3371
rradius 27.2655
rwrist -52.1054
rhand 6.53364 -24.257
rfingers 7.12502
rthumb 31.8317 -51.4966
lclavicle 7.15625e-014 6.52014e-014
lhumerus -17.9618 27.1992 13.7576
lradius 23.5079
lwrist -9.73823
lhand -5.19305 27.995
lfingers 7.12502
lthumb 20.6079 56.9211
rfemur -54.1681 -20.6956 30.8305
rtibia 73.7896
rfoot -14.0897 2.65177
rtoes -9.13022
lfemur -10.2023 4.20798 -11.3087
ltibia 48.2349
lfoot -33.5327 0.811789
ltoes -35.2303
287
root 8.69392 16.6063 3.76685 -179.924 -60.2204 -530.616
lowerback 18.6554 4.52582 -10.3587
upperback 1.99062 3.22851 -2.81424
thorax -8.72921 1.70891 1.95593
lowerneck -7.28757 -17.3766 -19.8317
upperneck -0.285181 -24.1948 28.4549
head 7.42685 -11.6223 9.13797
rclavicle -9.54166e-015 6.04305e-014
rhumerus 34.2634 -64.1225 -59.5824
rradius 27.5795
rwrist -52.9767
rhand 8.50352 -24.6207
rfingers 7.12502
rthumb 33.7056 -51.4694
lclavicle -9.54166e-015 6.04305e-014
lhumerus -17.6845 25.7073 14.1237
lradius 24.4224
lwrist -8.368
lhand -5.46693 27.7791
lfingers 7.12502
lthumb 20.3447 56.7334
rfemur -54.6061 -22.0211 33.1726
rtibia 71.2611
rfoot -13.603 5.88841
rtoes -1.01968
lfemur -9.25916 4.55404 -11.8574
ltibia 47.4907
lfoot -32.3036 0.652387
ltoes -36.4887
288
root 8.44378 16.6566 3.80308 -178.911 -59.2272 -531.115
lowerback 18.2833 4.44822 -10.8885
upperback 2.10747 3.09239 -2.65871
thorax -8.4171 1.65028 2.48116
lowerneck -7.29148 -17.4205 -20.0676
upperneck -0.548413 -24.1878 28.5554
head 7.39297 -11.6334 9.20348
rclavicle -6.75868e-014 1.11319e-014
rhumerus 34.9712 -64.0796 -60.361
rradius 27.7262
rwrist -53.1485
rhand 10.6051 -24.7156
rfingers 7.12502
rthumb 35.7001 -51.1052
lclavicle -6.75868e-014 1.11319e-014
lhumerus -17.5869 25.9773 14.3425
lradius 24.665
lwrist -8.46209
lhand -5.60353 27.0413
lfingers 7.12502
lthumb 20.2134 56.0096
rfemur -55.5549 -23.8303 35.9256
rtibia 68.5462
rfoot -12.8958 8.22439
rtoes -4.64759
lfemur -8.77936 4.8062 -12.7447
ltibia 46.9997
lfoot -30.8402 0.225104
ltoes -37.4862
289
root 8.20064 16.6851 3.82889 -177.757 -58.1784 -531.714
lowerback 17.9634 4.37304 -11.5581
upperback 2.11439 2.91079 -2.59558
thorax -8.24851 1.57907 2.98519
lowerneck -7.42392 -17.52 -20.2839
upperneck -0.394665 -24.3297 28.6139
head 7.53599 -11.6845 9.20431
rclavicle -3.73715e-014 2.70347e-014
rhumerus 35.4736 -63.9889 -61.1445
rradius 27.7889
rwrist -53.2129
rhand 11.8147 -25.4797
rfingers 7.12502
rthumb 36.8454 -51.584
lclavicle -3.73715e-014 2.70347e-014
lhumerus -17.5463 26.6718 14.338
lradius 24.8378
lwrist -8.78928
lhand -5.758 25.9531
lfingers 7.12502
lthumb 20.065 54.9371
rfemur -56.7383 -25.6467 39.2213
rtibia 65.669
rfoot -11.864 10.168
rtoes -11.9974
lfemur -8.55227 5.10097 -13.6419
ltibia 46.7099
lfoot -29.2732 -0.163212
ltoes -38.5013
